<!DOCTYPE svg PUBLIC "-//W3C//DTD SVG 20010904//EN" "http://www.w3.org/TR/2001/REC-SVG-20010904/DTD/svg10.dtd">
<svg version="1.0" xmlns="http://www.w3.org/2000/svg" width="85px" height="85px" viewBox="0 0 8000 8000" preserveAspectRatio="xMidYMid meet">
<g id="layer101" fill="#020202" stroke="none">
 <path d="M0 4000 l0 -4000 4000 0 4000 0 0 4000 0 4000 -4000 0 -4000 0 0 -4000z"/>
 </g>
<g id="layer102" fill="#67595d" stroke="none">
 <path d="M0 4000 l0 -4000 4000 0 4000 0 0 4000 0 4000 -4000 0 -4000 0 0 -4000z m4150 2865 c229 -27 399 -67 601 -139 125 -45 426 -192 464 -226 11 -10 45 -33 75 -50 30 -18 57 -36 60 -40 3 -5 26 -23 52 -42 147 -105 293 -249 453 -443 174 -212 338 -509 421 -765 44 -133 103 -391 119 -518 35 -283 7 -759 -44 -728 -4 3 -11 81 -14 173 -9 244 -30 363 -120 693 -27 100 -78 225 -149 365 -47 93 -67 127 -159 275 -43 70 -200 261 -304 369 -78 82 -215 202 -285 251 -19 13 -41 30 -48 37 -8 8 -27 20 -44 29 -17 9 -60 36 -97 61 -36 25 -111 68 -166 95 -55 28 -116 58 -135 68 -61 31 -290 106 -425 138 -442 106 -855 96 -1330 -32 -253 -68 -625 -261 -849 -439 -198 -158 -424 -399 -538 -575 -20 -32 -57 -88 -82 -127 -66 -101 -187 -369 -235 -519 -22 -71 -41 -135 -41 -142 0 -8 -4 -14 -9 -14 -4 0 -2 28 5 63 7 34 18 100 24 147 11 78 59 249 108 391 32 90 157 353 194 406 19 26 44 66 57 88 108 189 403 503 614 654 26 19 47 38 47 42 0 3 8 9 18 12 9 4 49 26 87 51 39 25 86 54 105 64 19 10 65 36 103 56 37 21 127 63 200 93 386 161 854 227 1267 178z m-2371 -2825 c51 -367 209 -744 418 -1001 32 -39 69 -87 83 -105 14 -18 27 -34 30 -34 3 0 51 -45 107 -99 149 -145 292 -248 463 -332 256 -126 327 -151 580 -201 103 -21 142 -23 370 -22 215 1 273 4 370 22 97 18 310 77 310 85 0 2 -14 43 -30 92 -19 57 -27 92 -20 99 10 10 206 -26 570 -106 124 -27 238 -52 253 -55 27 -6 27 -6 11 -32 -10 -14 -54 -70 -98 -124 -45 -53 -88 -111 -97 -127 -9 -16 -18 -28 -20 -25 -4 4 -644 135 -660 135 -15 0 -10 -33 16 -110 20 -60 23 -77 13 -86 -16 -15 -215 -69 -330 -89 -432 -76 -884 -10 -1279 190 -70 34 -146 75 -170 90 -162 102 -384 300 -519 464 -183 223 -337 537 -406 831 -44 183 -56 314 -51 540 3 176 8 225 33 350 l29 145 6 -210 c4 -115 12 -244 18 -285z m2282 354 c40 -20 86 -50 509 -329 173 -114 469 -310 657 -434 189 -124 520 -343 738 -486 748 -493 980 -647 1001 -667 12 -10 34 -42 49 -70 23 -42 27 -58 22 -99 -8 -61 -36 -127 -71 -162 l-26 -26 -33 28 c-31 27 -132 95 -977 651 -649 428 -892 588 -1160 765 -825 545 -775 515 -860 522 -44 4 -65 1 -97 -15 l-41 -21 -17 42 c-24 58 -22 143 4 194 24 48 92 110 136 123 42 13 126 5 166 -16z"/>
 </g>
<g id="layer103" fill="#efebe1" stroke="none">
 <path d="M0 4000 l0 -4000 4000 0 4000 0 0 4000 0 4000 -4000 0 -4000 0 0 -4000z m4150 2865 c229 -27 399 -67 601 -139 125 -45 426 -192 464 -226 11 -10 45 -33 75 -50 30 -18 57 -36 60 -40 3 -5 26 -23 52 -42 147 -105 293 -249 453 -443 174 -212 338 -509 421 -765 44 -133 103 -391 119 -518 20 -163 20 -489 0 -605 -8 -48 -24 -104 -35 -125 -12 -23 -25 -76 -31 -128 -12 -107 -22 -149 -48 -191 -45 -72 -169 -119 -251 -94 -50 15 -127 83 -146 128 -11 25 -14 99 -14 308 0 332 -20 479 -98 705 -131 378 -260 589 -521 851 -135 135 -175 168 -322 267 -239 160 -612 294 -896 322 -416 40 -797 -24 -1143 -193 -275 -135 -405 -229 -610 -442 -201 -209 -337 -415 -435 -662 -126 -313 -108 -762 46 -1193 65 -182 193 -412 306 -551 32 -39 69 -87 83 -105 14 -18 27 -34 30 -34 3 0 51 -45 107 -99 149 -145 292 -248 463 -332 256 -126 327 -151 580 -201 103 -21 142 -23 370 -22 215 1 273 4 370 22 97 18 310 77 310 85 0 2 -14 43 -30 92 -19 57 -27 92 -20 99 6 6 69 -2 177 -23 162 -32 573 -120 641 -138 l34 -8 -46 -60 c-25 -33 -75 -96 -111 -140 -36 -44 -64 -84 -62 -90 2 -5 31 -16 65 -23 35 -8 62 -19 62 -26 0 -7 -39 -59 -87 -116 -49 -57 -106 -126 -127 -154 -22 -28 -80 -100 -131 -161 -50 -60 -108 -131 -129 -158 -21 -26 -42 -47 -46 -47 -4 0 -20 30 -35 68 -43 108 -37 106 -192 61 -224 -65 -334 -80 -614 -86 -284 -6 -380 1 -610 47 -197 40 -485 143 -674 243 -100 53 -282 180 -410 288 -136 113 -307 282 -342 337 -10 15 -20 29 -23 32 -25 23 -125 165 -183 261 -151 250 -295 626 -326 852 -5 34 -17 114 -26 177 -28 200 -20 586 16 720 5 19 14 85 19 145 5 61 17 144 26 185 8 41 21 104 28 140 14 69 62 230 102 344 36 102 158 357 196 413 19 26 44 66 57 88 108 189 403 503 614 654 26 19 47 38 47 42 0 3 8 9 18 12 9 4 49 26 87 51 39 25 86 54 105 64 19 10 65 36 103 56 37 21 127 63 200 93 386 161 854 227 1267 178z m-89 -2471 c40 -20 86 -50 509 -329 173 -114 469 -310 657 -434 189 -124 520 -343 738 -486 748 -493 980 -647 1001 -667 12 -10 34 -42 49 -70 23 -42 27 -58 22 -99 -7 -61 -41 -138 -68 -157 -17 -12 -20 -21 -15 -51 25 -142 17 -205 -32 -263 -35 -42 -115 -78 -174 -78 -62 0 -117 30 -413 225 -132 87 -361 238 -510 336 -566 373 -1294 854 -1684 1114 -368 245 -409 275 -436 319 -51 85 -36 193 37 267 l30 29 -17 43 c-24 58 -22 143 4 194 24 48 92 110 136 123 42 13 126 5 166 -16z"/>
 </g>

</svg>
