<svg xmlns="http://www.w3.org/2000/svg" width="85" height="85" preserveAspectRatio="xMidYMid meet" version="1.0" viewBox="0 0 8000 8000"><g id="layer101" fill="#010101" stroke="none"><path d="M3760 7884 c-19 -2 -87 -9 -150 -15 -617 -58 -1262 -294 -1790 -657 -339 -232 -664 -542 -907 -863 -437 -577 -694 -1227 -775 -1954 -17 -155 -17 -653 0 -800 116 -1005 566 -1874 1312 -2529 608 -534 1335 -853 2165 -948 147 -17 645 -17 800 0 818 91 1563 416 2165 948 748 660 1196 1524 1312 2529 17 147 17 645 0 800 -111 1006 -575 1889 -1342 2557 -570 496 -1298 816 -2080 913 -118 15 -628 29 -710 19z"/></g><g id="layer102" fill="#67595d" stroke="none"><path d="M3760 7884 c-19 -2 -87 -9 -150 -15 -617 -58 -1262 -294 -1790 -657 -339 -232 -664 -542 -907 -863 -437 -577 -694 -1227 -775 -1954 -17 -155 -17 -653 0 -800 116 -1005 566 -1874 1312 -2529 608 -534 1335 -853 2165 -948 147 -17 645 -17 800 0 818 91 1563 416 2165 948 748 660 1196 1524 1312 2529 17 147 17 645 0 800 -111 1006 -575 1889 -1342 2557 -570 496 -1298 816 -2080 913 -118 15 -628 29 -710 19z m303 -1014 c165 -15 297 -35 414 -66 130 -33 422 -133 453 -154 14 -9 72 -40 130 -68 58 -27 123 -64 145 -82 22 -18 54 -39 70 -47 72 -36 264 -193 373 -303 95 -96 256 -285 300 -351 121 -183 202 -329 264 -479 113 -272 182 -599 194 -915 9 -213 -15 -443 -50 -491 -12 -15 -14 -1 -15 97 -3 207 -29 415 -76 591 -60 224 -73 268 -109 353 -47 112 -126 269 -179 355 -22 36 -54 88 -71 115 -107 173 -413 495 -586 615 -19 13 -41 30 -48 37 -8 8 -27 20 -44 29 -17 9 -60 36 -97 61 -36 25 -104 64 -151 86 -47 23 -98 49 -113 60 -42 29 -294 114 -452 152 -447 109 -860 100 -1340 -29 -255 -69 -622 -258 -850 -439 -194 -155 -423 -400 -537 -575 -20 -32 -57 -88 -82 -127 -69 -108 -173 -334 -227 -497 -27 -81 -49 -155 -49 -163 0 -8 -5 -15 -11 -15 -5 0 -8 4 -5 9 3 5 17 74 30 153 26 150 74 327 128 463 50 128 157 344 193 392 19 25 43 64 55 87 11 23 35 60 53 82 18 21 44 55 57 74 59 87 260 296 380 395 153 128 333 246 505 333 94 47 296 128 369 148 237 64 351 87 581 117 64 8 282 7 398 -3z m-2284 -2874 c28 -163 90 -381 136 -481 13 -27 33 -72 44 -98 67 -157 231 -392 387 -553 218 -223 382 -336 694 -477 115 -52 291 -103 465 -133 137 -24 471 -24 642 0 122 18 336 75 357 96 8 8 4 28 -13 73 -22 59 -38 127 -29 127 35 0 825 -166 837 -176 6 -6 -23 -44 -118 -158 -50 -60 -91 -118 -91 -128 0 -11 -4 -17 -8 -14 -8 5 -647 136 -663 136 -15 0 -10 -33 16 -110 20 -60 23 -77 13 -86 -16 -15 -215 -69 -330 -89 -432 -76 -884 -10 -1279 190 -70 34 -146 75 -170 90 -162 102 -384 300 -519 464 -183 223 -337 538 -406 831 -43 184 -56 314 -51 540 3 177 8 225 33 350 l29 145 6 -235 c3 -129 12 -266 18 -304z m2284 392 c34 -17 484 -310 725 -473 9 -5 103 -68 211 -139 108 -71 289 -190 402 -265 114 -75 381 -251 595 -391 688 -452 958 -633 976 -654 10 -12 30 -44 44 -72 l28 -51 -17 -68 c-17 -66 -54 -131 -84 -142 -8 -3 -26 6 -41 20 -26 24 -122 88 -968 645 -592 390 -879 579 -1174 774 -567 375 -711 468 -752 489 -57 29 -145 36 -186 15 -17 -9 -33 -16 -36 -16 -3 0 -15 19 -27 42 -16 31 -20 54 -17 93 14 172 173 267 321 193z"/></g><g id="layer103" fill="#eeebe1" stroke="none"><path d="M3760 7884 c-19 -2 -87 -9 -150 -15 -617 -58 -1262 -294 -1790 -657 -339 -232 -664 -542 -907 -863 -437 -577 -694 -1227 -775 -1954 -17 -155 -17 -653 0 -800 116 -1005 566 -1874 1312 -2529 608 -534 1335 -853 2165 -948 147 -17 645 -17 800 0 818 91 1563 416 2165 948 748 660 1196 1524 1312 2529 17 147 17 645 0 800 -111 1006 -575 1889 -1342 2557 -570 496 -1298 816 -2080 913 -118 15 -628 29 -710 19z m303 -1014 c165 -15 297 -35 414 -66 130 -33 422 -133 453 -154 14 -9 72 -40 130 -68 58 -27 123 -64 145 -82 22 -18 54 -39 70 -47 72 -36 264 -193 373 -303 95 -96 256 -285 300 -351 121 -183 202 -329 264 -479 53 -127 72 -187 117 -370 59 -237 76 -377 75 -635 -1 -236 -15 -347 -53 -408 -13 -22 -23 -65 -30 -140 -15 -153 -45 -204 -144 -246 -104 -45 -205 -16 -265 74 l-30 45 -5 307 c-5 342 -16 430 -80 638 -87 283 -196 497 -366 720 -59 77 -278 296 -356 356 -333 254 -702 400 -1085 430 -238 19 -525 1 -665 -41 -16 -5 -59 -17 -95 -26 -90 -23 -271 -94 -377 -147 -257 -131 -380 -221 -573 -422 -212 -221 -341 -416 -444 -673 -25 -61 -50 -137 -56 -169 -18 -90 -24 -395 -11 -524 19 -183 85 -443 146 -574 13 -27 33 -72 44 -98 67 -157 231 -392 387 -553 218 -223 382 -336 694 -477 115 -52 291 -103 465 -133 137 -24 471 -24 642 0 122 18 336 75 357 96 8 8 4 28 -13 73 -13 34 -26 77 -29 96 -4 32 -3 33 24 28 429 -83 814 -167 814 -178 0 -4 -28 -42 -62 -84 -154 -188 -153 -185 -142 -203 6 -9 34 -21 62 -27 28 -5 53 -13 56 -16 3 -3 -54 -78 -126 -166 -73 -88 -189 -229 -257 -312 -68 -83 -126 -151 -130 -151 -3 0 -11 12 -18 28 -42 102 -54 123 -69 129 -9 3 -51 -4 -93 -17 -42 -12 -114 -31 -161 -42 -47 -11 -112 -26 -145 -34 -33 -8 -151 -20 -263 -26 -232 -14 -449 -2 -617 32 -55 11 -125 25 -155 31 -91 18 -286 86 -430 149 -167 73 -329 165 -450 255 -125 94 -346 296 -416 381 -43 53 -91 110 -105 128 -70 82 -226 342 -286 475 -65 145 -107 253 -128 331 -12 47 -30 110 -39 140 -9 30 -28 134 -43 230 -36 240 -37 547 -4 750 12 74 26 176 30 225 16 181 94 500 166 680 54 133 154 335 190 382 19 25 43 64 55 87 11 23 35 60 53 82 18 21 44 55 57 74 59 87 260 296 380 395 153 128 333 246 505 333 94 47 296 128 369 148 237 64 351 87 581 117 64 8 282 7 398 -3z m0 -2482 c34 -17 484 -310 725 -473 9 -5 103 -68 211 -139 108 -71 289 -190 402 -265 114 -75 381 -251 595 -391 688 -452 958 -633 976 -654 10 -12 30 -44 44 -72 l28 -51 -17 -68 c-10 -39 -29 -83 -44 -103 -49 -60 -48 -59 -34 -98 7 -20 13 -62 13 -95 0 -73 -30 -131 -90 -173 -35 -25 -55 -31 -110 -34 -60 -3 -73 0 -127 29 -52 28 -230 142 -320 206 -46 32 -209 138 -220 142 -5 2 -46 29 -90 60 -44 31 -152 103 -240 160 -154 101 -326 214 -980 646 -165 109 -426 281 -580 383 -371 244 -426 281 -454 306 -31 27 -71 113 -71 152 0 49 28 118 66 162 l35 41 -22 42 c-16 32 -20 55 -17 94 14 172 173 267 321 193z"/></g></svg>